<svg width="39" height="71" viewBox="0 0 39 71" fill="none" xmlns="http://www.w3.org/2000/svg">
<path d="M33.6324 0H5.3676C2.40794 0 0 2.43561 0 5.42928V64.8077C0 67.8014 2.40794 70.237 5.3676 70.237H33.6324C36.5921 70.237 39 67.8014 39 64.8077V5.42928C39 2.43561 36.5921 0 33.6324 0ZM2.03833 10.8586H36.9617V17.5936H2.03833V10.8586ZM2.03833 19.6554H36.9617V59.3784H2.03833V19.6554ZM5.3676 2.06175H33.6324C35.4681 2.06175 36.9617 3.57246 36.9617 5.42928V8.7968H2.03833V5.42928C2.03833 3.57246 3.53188 2.06175 5.3676 2.06175ZM33.6324 68.1752H5.3676C3.53188 68.1752 2.03833 66.6645 2.03833 64.8077V61.4402H36.9617V64.8077C36.9617 66.6645 35.4681 68.1752 33.6324 68.1752Z" fill="black"/>
<path d="M16.2389 6.46019H22.7615C23.3244 6.46019 23.7807 5.99863 23.7807 5.42931C23.7807 4.85999 23.3244 4.39844 22.7615 4.39844H16.2389C15.676 4.39844 15.2197 4.85999 15.2197 5.42931C15.2197 5.99863 15.676 6.46019 16.2389 6.46019Z" fill="black"/>
<path d="M21.6742 63.7764H17.3258C16.763 63.7764 16.3066 64.2379 16.3066 64.8072C16.3066 65.3766 16.763 65.8381 17.3258 65.8381H21.6742C22.2371 65.8381 22.6934 65.3766 22.6934 64.8072C22.6934 64.2379 22.2371 63.7764 21.6742 63.7764Z" fill="black"/>
<path d="M11.8903 6.46019C12.158 6.46019 12.4216 6.35023 12.6105 6.1578C12.8007 5.96674 12.9094 5.70009 12.9094 5.42931C12.9094 5.15854 12.8007 4.89188 12.6105 4.70083C12.4216 4.5084 12.158 4.39844 11.8903 4.39844C11.6226 4.39844 11.3589 4.5084 11.17 4.70083C10.9798 4.89188 10.8711 5.15854 10.8711 5.42931C10.8711 5.70009 10.9798 5.96674 11.17 6.1578C11.3589 6.35023 11.6226 6.46019 11.8903 6.46019Z" fill="black"/>
<path d="M7.90838 42.4452C8.10732 42.6464 8.36822 42.7471 8.62899 42.7471C8.88976 42.7471 9.15067 42.6465 9.34961 42.4452L16.9594 34.748C17.3574 34.3454 17.3574 33.6926 16.9594 33.2902L9.34961 25.593C8.95159 25.1904 8.30626 25.1904 7.90838 25.593C7.51036 25.9956 7.51036 26.6483 7.90838 27.0508L14.7975 34.0191L7.90838 40.9874C7.51036 41.3898 7.51036 42.0427 7.90838 42.4452Z" fill="black"/>
<path d="M18.4127 42.7473H29.2838C29.8467 42.7473 30.303 42.2857 30.303 41.7164C30.303 41.1471 29.8467 40.6855 29.2838 40.6855H18.4127C17.8499 40.6855 17.3936 41.1471 17.3936 41.7164C17.3936 42.2857 17.8499 42.7473 18.4127 42.7473Z" fill="black"/>
<path d="M10.8033 48.3828H6.4549C5.29347 48.3828 4.34863 49.3385 4.34863 50.5133V54.9117C4.34863 56.0865 5.29347 57.0422 6.4549 57.0422H10.8033C11.9648 57.0422 12.9096 56.0865 12.9096 54.9117V50.5133C12.9096 49.3385 11.9648 48.3828 10.8033 48.3828ZM10.8713 54.9117C10.8713 54.9496 10.8408 54.9804 10.8033 54.9804H6.4549C6.4174 54.9804 6.38696 54.9496 6.38696 54.9117V50.5133C6.38696 50.4754 6.4174 50.4446 6.4549 50.4446H10.8033C10.8408 50.4446 10.8713 50.4754 10.8713 50.5133V54.9117Z" fill="black"/>
<path d="M21.6744 48.3828H17.326C16.1646 48.3828 15.2197 49.3385 15.2197 50.5133V54.9117C15.2197 56.0865 16.1646 57.0422 17.326 57.0422H21.6744C22.8359 57.0422 23.7807 56.0865 23.7807 54.9117V50.5133C23.7807 49.3385 22.8359 48.3828 21.6744 48.3828ZM21.7424 54.9117C21.7424 54.9496 21.7119 54.9804 21.6744 54.9804H17.326C17.2885 54.9804 17.2581 54.9496 17.2581 54.9117V50.5133C17.2581 50.4754 17.2885 50.4446 17.326 50.4446H21.6744C21.7119 50.4446 21.7424 50.4754 21.7424 50.5133V54.9117Z" fill="black"/>
<path d="M32.5455 48.3828H28.1971C27.0357 48.3828 26.0908 49.3385 26.0908 50.5133V54.9117C26.0908 56.0865 27.0357 57.0422 28.1971 57.0422H32.5455C33.707 57.0422 34.6518 56.0865 34.6518 54.9117V50.5133C34.6518 49.3385 33.707 48.3828 32.5455 48.3828ZM32.6135 54.9117C32.6135 54.9496 32.583 54.9804 32.5455 54.9804H28.1971C28.1596 54.9804 28.1291 54.9496 28.1291 54.9117V50.5133C28.1291 50.4754 28.1596 50.4446 28.1971 50.4446H32.5455C32.583 50.4446 32.6135 50.4754 32.6135 50.5133V54.9117Z" fill="black"/>
<path d="M6.4549 13.1953H5.3678C4.80495 13.1953 4.34863 13.6569 4.34863 14.2262C4.34863 14.7955 4.80495 15.2571 5.3678 15.2571H6.4549C7.01776 15.2571 7.47407 14.7955 7.47407 14.2262C7.47407 13.6569 7.01776 13.1953 6.4549 13.1953Z" fill="black"/>
<path d="M33.6326 13.1953H32.5455C31.9827 13.1953 31.5264 13.6569 31.5264 14.2262C31.5264 14.7955 31.9827 15.2571 32.5455 15.2571H33.6326C34.1955 15.2571 34.6518 14.7955 34.6518 14.2262C34.6518 13.6569 34.1955 13.1953 33.6326 13.1953Z" fill="black"/>
<path d="M28.0607 13.1953H10.8029C10.24 13.1953 9.78369 13.6569 9.78369 14.2262C9.78369 14.7955 10.24 15.2571 10.8029 15.2571H28.0607C28.6235 15.2571 29.0799 14.7955 29.0799 14.2262C29.0799 13.6569 28.6235 13.1953 28.0607 13.1953Z" fill="black"/>
</svg>
