<svg id="Capa_1" enable-background="new 0 0 512 512" height="512" viewBox="0 0 512 512" width="512" xmlns="http://www.w3.org/2000/svg"><g><path d="m509.77 222.156c-.432-3.27-2.949-5.874-6.203-6.416l-42.944-7.157c-5.209-22.589-14.081-43.982-26.424-63.718l25.325-35.454c1.917-2.684 1.856-6.305-.151-8.922-6.873-8.967-14.394-17.549-22.353-25.509-7.959-7.959-16.542-15.48-25.508-22.354-2.618-2.007-6.238-2.069-8.922-.151l-35.454 25.325c-19.736-12.344-41.129-21.215-63.718-26.424l-7.158-42.944c-.542-3.253-3.146-5.771-6.416-6.203-11.202-1.479-22.589-2.229-33.844-2.229s-22.642.75-33.843 2.23c-3.27.432-5.874 2.949-6.416 6.203l-7.158 42.944c-22.592 5.209-43.981 14.08-63.718 26.424l-35.455-25.325c-2.684-1.917-6.305-1.855-8.922.151-8.967 6.875-17.549 14.395-25.508 22.354s-15.48 16.542-22.354 25.508c-2.006 2.618-2.067 6.239-.15 8.922l25.325 35.454c-12.344 19.736-21.215 41.129-26.424 63.718l-42.944 7.157c-3.253.542-5.771 3.146-6.203 6.416-1.48 11.202-2.23 22.589-2.23 33.844s.75 22.642 2.23 33.843c.432 3.27 2.949 5.874 6.203 6.416l42.944 7.158c5.209 22.591 14.08 43.981 26.424 63.718l-25.325 35.455c-1.917 2.684-1.856 6.305.151 8.922 6.875 8.968 14.396 17.55 22.354 25.508 7.958 7.959 16.541 15.48 25.508 22.354 2.617 2.006 6.237 2.067 8.922.15l35.454-25.325c19.737 12.344 41.126 21.215 63.718 26.424l7.158 42.944c.542 3.253 3.146 5.771 6.416 6.203 11.201 1.48 22.588 2.23 33.843 2.23s22.642-.75 33.843-2.23c3.27-.432 5.874-2.949 6.416-6.203l7.158-42.944c22.589-5.209 43.982-14.081 63.718-26.424l35.454 25.325c2.683 1.917 6.304 1.855 8.922-.15 8.967-6.874 17.549-14.395 25.508-22.354 7.958-7.958 15.479-16.54 22.354-25.508 2.007-2.618 2.068-6.239.151-8.922l-25.325-35.455c12.345-19.737 21.215-41.126 26.424-63.718l42.944-7.158c3.253-.542 5.771-3.146 6.203-6.416 1.48-11.201 2.23-22.588 2.23-33.843s-.75-22.642-2.23-33.844zm-14.209 60.23-42.417 7.07c-3.061.51-5.492 2.853-6.114 5.893-4.971 24.264-14.441 47.101-28.148 67.879-1.709 2.59-1.646 5.964.157 8.489l25.015 35.02c-5.525 6.877-11.442 13.478-17.641 19.676-6.198 6.199-12.799 12.116-19.675 17.64l-35.02-25.014c-2.525-1.804-5.899-1.867-8.489-.157-20.778 13.707-43.616 23.177-67.879 28.147-3.041.623-5.383 3.054-5.893 6.115l-7.07 42.417c-17.537 1.912-35.235 1.912-52.772 0l-7.07-42.417c-.51-3.061-2.853-5.492-5.893-6.114-24.264-4.971-47.102-14.441-67.879-28.148-2.59-1.709-5.965-1.646-8.489.157l-35.02 25.014c-6.876-5.524-13.477-11.441-19.676-17.641-6.198-6.198-12.116-12.798-17.641-19.675l25.015-35.02c1.803-2.525 1.866-5.899.157-8.489-13.707-20.778-23.177-43.615-28.148-67.879-.623-3.04-3.053-5.382-6.114-5.893l-42.417-7.07c-.957-8.768-1.44-17.62-1.44-26.386s.483-17.618 1.439-26.387l42.417-7.069c3.061-.51 5.492-2.853 6.115-5.893 4.97-24.263 14.44-47.101 28.147-67.879 1.709-2.59 1.646-5.964-.157-8.489l-25.014-35.02c5.524-6.876 11.441-13.477 17.64-19.676 6.199-6.198 12.799-12.115 19.676-17.64l35.02 25.014c2.525 1.803 5.899 1.866 8.489.157 20.777-13.707 43.615-23.177 67.879-28.147 3.04-.623 5.382-3.053 5.893-6.114l7.07-42.417c17.537-1.912 35.235-1.912 52.772 0l7.07 42.417c.51 3.061 2.853 5.492 5.893 6.115 24.263 4.97 47.101 14.44 67.879 28.147 2.59 1.709 5.965 1.646 8.489-.157l35.02-25.015c6.876 5.524 13.477 11.441 19.676 17.64s12.116 12.8 17.641 19.676l-25.015 35.02c-1.803 2.525-1.866 5.899-.157 8.489 13.707 20.778 23.177 43.616 28.147 67.879.623 3.041 3.054 5.383 6.115 5.893l42.417 7.069c.956 8.769 1.439 17.621 1.439 26.387s-.483 17.618-1.439 26.386z"/><path d="m256 278.5c12.407 0 22.5-10.093 22.5-22.5s-10.093-22.5-22.5-22.5-22.5 10.093-22.5 22.5 10.093 22.5 22.5 22.5zm0-30c4.136 0 7.5 3.364 7.5 7.5s-3.364 7.5-7.5 7.5-7.5-3.364-7.5-7.5 3.364-7.5 7.5-7.5z"/><path d="m256 308.5c28.949 0 52.5-23.551 52.5-52.5s-23.551-52.5-52.5-52.5-52.5 23.551-52.5 52.5 23.551 52.5 52.5 52.5zm0-90c20.678 0 37.5 16.822 37.5 37.5s-16.822 37.5-37.5 37.5-37.5-16.822-37.5-37.5 16.822-37.5 37.5-37.5z"/><path d="m144.438 167.206c-6.836.808-12.812 4.622-16.394 10.463-14.419 23.512-22.04 50.598-22.04 78.331s7.621 54.819 22.04 78.33c3.582 5.842 9.558 9.656 16.394 10.464.902.106 1.802.159 2.696.159 5.955 0 11.641-2.335 15.916-6.611l35.676-35.676c2.522-2.522 2.919-6.472.949-9.445-14.98-22.611-14.98-51.832 0-74.442 1.97-2.974 1.573-6.923-.949-9.445l-35.676-35.676c-4.916-4.917-11.697-7.268-18.612-6.452zm39.513 129.023-31.506 31.506c-1.648 1.648-3.924 2.437-6.245 2.162-1.32-.156-3.772-.806-5.368-3.409-26.26-42.82-26.26-98.157 0-140.978 1.596-2.603 4.048-3.253 5.368-3.409.303-.036.606-.054.906-.054 1.999 0 3.906.783 5.338 2.215l31.506 31.506c-14.021 25.019-14.021 55.445.001 80.461z"/><path d="m334.331 128.044c-23.512-14.419-50.598-22.04-78.331-22.04s-54.819 7.621-78.33 22.04c-5.842 3.582-9.656 9.558-10.464 16.394-.817 6.912 1.535 13.695 6.452 18.612l35.676 35.676c2.522 2.523 6.473 2.919 9.445.949 22.611-14.98 51.831-14.98 74.442 0 1.265.838 2.707 1.248 4.14 1.248 1.936 0 3.856-.748 5.306-2.197l35.676-35.676c4.917-4.917 7.269-11.701 6.452-18.612-.809-6.836-4.623-12.812-10.464-16.394zm-6.595 24.4-31.506 31.506c-12.508-7.011-26.368-10.516-40.229-10.516s-27.721 3.504-40.229 10.516l-31.506-31.506c-1.648-1.648-2.436-3.924-2.162-6.245.156-1.32.806-3.772 3.409-5.368 42.82-26.26 98.157-26.26 140.978 0 2.603 1.596 3.253 4.048 3.409 5.368.272 2.321-.516 4.597-2.164 6.245z"/><path d="m364.865 344.953c.894 0 1.794-.053 2.696-.159 6.836-.808 12.812-4.622 16.394-10.463 14.419-23.512 22.04-50.598 22.04-78.331s-7.621-54.819-22.04-78.33c-3.582-5.842-9.558-9.656-16.394-10.464-6.915-.818-13.696 1.535-18.612 6.452l-35.676 35.676c-2.522 2.522-2.919 6.472-.949 9.445 14.98 22.611 14.98 51.832 0 74.442-1.97 2.974-1.573 6.923.949 9.445l35.676 35.676c4.276 4.276 9.961 6.611 15.916 6.611zm-36.816-129.182 31.506-31.506c1.648-1.648 3.921-2.438 6.245-2.162 1.32.156 3.772.806 5.368 3.409 26.26 42.82 26.26 98.157 0 140.978-1.596 2.603-4.048 3.253-5.368 3.409-2.322.276-4.597-.514-6.245-2.162l-31.506-31.506c14.022-25.018 14.022-55.444 0-80.46z"/><path d="m167.206 367.562c.808 6.836 4.622 12.812 10.463 16.394 23.512 14.419 50.598 22.04 78.331 22.04s54.819-7.621 78.33-22.04c5.842-3.582 9.656-9.558 10.464-16.394.817-6.912-1.535-13.695-6.452-18.612l-35.676-35.676c-2.521-2.522-6.472-2.918-9.445-.949-22.611 14.98-51.831 14.98-74.442 0-2.973-1.969-6.923-1.572-9.445.949l-35.676 35.676c-4.917 4.916-7.269 11.7-6.452 18.612zm17.058-8.006 31.506-31.506c25.017 14.022 55.442 14.022 80.459 0l31.506 31.506c1.648 1.648 2.436 3.924 2.162 6.245-.156 1.32-.806 3.772-3.409 5.368-42.82 26.261-98.157 26.26-140.978 0-2.603-1.596-3.253-4.048-3.409-5.368-.273-2.321.515-4.597 2.163-6.245z"/><path d="m256 76c-42.287 0-83.386 14.967-115.727 42.143-3.171 2.665-3.582 7.396-.917 10.567 2.664 3.17 7.396 3.582 10.567.917 29.642-24.909 67.315-38.627 106.077-38.627 90.981 0 165 74.019 165 165s-74.019 165-165 165-165-74.019-165-165c0-38.762 13.718-76.435 38.626-106.077 2.665-3.171 2.254-7.902-.917-10.567s-7.903-2.254-10.567.917c-27.175 32.341-42.142 73.44-42.142 115.727 0 99.252 80.748 180 180 180s180-80.748 180-180-80.748-180-180-180z"/></g></svg>