<svg height="512pt" viewBox="0 -13 512.00101 512" width="512pt" xmlns="http://www.w3.org/2000/svg"><path d="m261.300781 238.910156h-168.765625c-23.070312 0-41.84375 18.773438-41.84375 41.84375v108.917969c0 23.070313 18.773438 41.839844 41.84375 41.839844h11.882813c4.199219 0 7.605469-3.402344 7.605469-7.601563 0-4.199218-3.40625-7.605468-7.605469-7.605468h-11.882813c-14.6875 0-26.632812-11.949219-26.632812-26.632813v-108.917969c0-14.6875 11.945312-26.632812 26.632812-26.632812h168.765625c14.683594 0 26.632813 11.945312 26.632813 26.632812v108.917969c0 14.683594-11.949219 26.632813-26.632813 26.632813h-126.464843c-4.203126 0-7.605469 3.40625-7.605469 7.605468 0 4.199219 3.402343 7.601563 7.605469 7.601563h126.464843c23.070313 0 41.839844-18.769531 41.839844-41.839844v-108.917969c0-23.070312-18.769531-41.84375-41.839844-41.84375zm0 0"/><path d="m110.105469 126.789062c0-18.457031-15.011719-33.46875-33.464844-33.46875-18.457031 0-33.472656 15.015626-33.472656 33.46875 0 18.453126 15.015625 33.46875 33.472656 33.46875 18.453125 0 33.464844-15.015624 33.464844-33.46875zm-51.726563 0c0-10.070312 8.191406-18.261718 18.261719-18.261718 10.066406 0 18.257813 8.191406 18.257813 18.261718 0 10.070313-8.191407 18.261719-18.257813 18.261719-10.070313 0-18.261719-8.191406-18.261719-18.261719zm0 0"/><path d="m504.394531 240.175781c4.203125 0 7.605469-3.402343 7.605469-7.605469v-29.410156c0-10.875-8.847656-19.722656-19.726562-19.722656h-47.660157c-1.78125 0-3.410156.613281-4.707031 1.636719-.015625.011719-.03125.019531-.046875.03125l-59.300781 47.472656h-27.285156c-3.691407-25.058594-25.332032-44.359375-51.398438-44.359375h-8.652344c28.949219-17.949219 48.273438-50.007812 48.273438-86.503906 0-56.085938-45.628906-101.714844-101.714844-101.714844-20.855469 0-40.257812 6.3125-56.414062 17.121094l-107.96875 33.0625c-41.6875.667968-75.398438 34.761718-75.398438 76.605468 0 26.910157 13.957031 50.613282 35 64.289063-20.347656 7.046875-35 26.390625-35 49.101563v190.066406c0 28.648437 23.308594 51.960937 51.960938 51.960937h249.914062c26.070312 0 47.707031-19.300781 51.398438-44.359375h27.285156l59.300781 47.472656c.007813.007813.019531.007813.027344.015626 1.296875 1.03125 2.9375 1.652343 4.726562 1.652343h47.664063c10.875 0 19.722656-8.847656 19.722656-19.722656v-204.277344c0-4.199219-3.402344-7.601562-7.601562-7.601562-4.203126 0-7.605469 3.402343-7.605469 7.601562v204.277344c0 2.488281-2.027344 4.515625-4.515625 4.515625h-40.0625v-273.136719h40.0625c2.488281 0 4.515625 2.027344 4.515625 4.515625v29.410156c0 4.203126 3.402343 7.605469 7.601562 7.605469zm-178.109375-138.460937c0 47.699218-38.804687 86.503906-86.503906 86.503906s-86.503906-38.804688-86.503906-86.503906c0-47.699219 38.804687-86.507813 86.503906-86.507813s86.503906 38.808594 86.503906 86.507813zm-186.554687-18.359375c-8.136719-11.785157-19.476563-21.1875-32.765625-26.933594l51.53125-15.777344c-9.308594 12.359375-15.871094 26.902344-18.765625 42.710938zm10.171875 65.929687c8.488281 15.976563 21.113281 29.433594 36.4375 38.933594h-63.929688c12.886719-9.628906 22.652344-23.210938 27.492188-38.933594zm-134.695313-22.496094c0-33.875 27.558594-61.429687 61.433594-61.429687 33.871094 0 61.429687 27.558594 61.429687 61.429687 0 33.871094-27.558593 61.429688-61.429687 61.429688-33.875 0-61.433594-27.558594-61.433594-61.429688zm286.667969 340.210938h-249.914062c-20.265626 0-36.753907-16.488281-36.753907-36.753906v-190.066406c0-20.265626 16.488281-36.753907 36.753907-36.753907h249.914062c20.265625 0 36.753906 16.488281 36.753906 36.753907v190.066406c0 20.265625-16.488281 36.753906-36.753906 36.753906zm51.960938-219.21875h21.785156v174.859375h-21.785156zm36.992187-3.949219 46.179687-36.964843v256.691406l-46.179687-36.964844zm0 0"/><path d="m145.082031 302.597656c0-15.851562-12.894531-28.742187-28.746093-28.742187-15.847657 0-28.742188 12.890625-28.742188 28.742187 0 15.851563 12.894531 28.742188 28.742188 28.742188 15.851562 0 28.746093-12.890625 28.746093-28.742188zm-42.28125 0c0-7.464844 6.074219-13.535156 13.535157-13.535156 7.464843 0 13.539062 6.070312 13.539062 13.535156s-6.074219 13.535156-13.539062 13.535156c-7.460938 0-13.535157-6.070312-13.535157-13.535156zm0 0"/><path d="m210.730469 302.597656c0-15.851562-12.894531-28.742187-28.742188-28.742187-15.851562 0-28.746093 12.890625-28.746093 28.742187 0 15.851563 12.894531 28.742188 28.746093 28.742188 15.847657 0 28.742188-12.890625 28.742188-28.742188zm-42.28125 0c0-7.464844 6.074219-13.535156 13.539062-13.535156 7.460938 0 13.535157 6.070312 13.535157 13.535156s-6.074219 13.535156-13.535157 13.535156c-7.464843 0-13.539062-6.070312-13.539062-13.535156zm0 0"/><path d="m114.160156 400.042969h125.515625c13.664063 0 24.78125-11.113281 24.78125-24.777344s-11.117187-24.78125-24.78125-24.78125h-125.515625c-13.664062 0-24.777344 11.117187-24.777344 24.78125s11.113282 24.777344 24.777344 24.777344zm0-34.351563h125.515625c5.277344 0 9.574219 4.296875 9.574219 9.574219s-4.296875 9.570313-9.574219 9.570313h-125.515625c-5.277344 0-9.570312-4.292969-9.570312-9.570313s4.292968-9.574219 9.570312-9.574219zm0 0"/><path d="m239.78125 84.082031c15.3125 0 27.769531-12.457031 27.769531-27.769531s-12.457031-27.769531-27.769531-27.769531-27.769531 12.457031-27.769531 27.769531 12.457031 27.769531 27.769531 27.769531zm0-15.207031c-3.550781 0-6.757812-1.488281-9.042969-3.867188 2.929688-.71875 5.953125-1.09375 9.042969-1.09375 3.09375 0 6.113281.375 9.042969 1.09375-2.285157 2.378907-5.492188 3.867188-9.042969 3.867188zm0-25.125c4.542969 0 8.515625 2.433594 10.726562 6.054688-3.5-.71875-7.078124-1.101563-10.726562-1.101563s-7.226562.382813-10.722656 1.101563c2.207031-3.621094 6.179687-6.054688 10.722656-6.054688zm0 0"/><path d="m239.78125 119.34375c-15.3125 0-27.769531 12.457031-27.769531 27.769531s12.457031 27.769531 27.769531 27.769531 27.769531-12.457031 27.769531-27.769531-12.457031-27.769531-27.769531-27.769531zm0 15.210938c3.550781 0 6.753906 1.484374 9.039062 3.859374-2.929687.71875-5.949218 1.089844-9.039062 1.089844s-6.109375-.371094-9.039062-1.089844c2.285156-2.375 5.488281-3.859374 9.039062-3.859374zm0 25.121093c-4.546875 0-8.523438-2.433593-10.726562-6.058593 3.5.714843 7.078124 1.097656 10.726562 1.097656s7.230469-.382813 10.730469-1.097656c-2.207031 3.625-6.183594 6.058593-10.730469 6.058593zm0 0"/><path d="m257.414062 101.714844c0 15.3125 12.457032 27.769531 27.769532 27.769531s27.769531-12.457031 27.769531-27.769531-12.457031-27.769532-27.769531-27.769532-27.769532 12.457032-27.769532 27.769532zm40.332032 0c0 4.542968-2.4375 8.523437-6.0625 10.726562.722656-3.5 1.101562-7.082031 1.101562-10.730468 0-3.648438-.378906-7.226563-1.097656-10.722657 3.625 2.203125 6.058594 6.179688 6.058594 10.726563zm-21.261719-9.042969c.71875 2.929687 1.09375 5.949219 1.09375 9.039063 0 3.089843-.375 6.109374-1.09375 9.042968-2.375-2.285156-3.863281-5.492187-3.863281-9.039062 0-3.550782 1.488281-6.757813 3.863281-9.042969zm0 0"/><path d="m166.609375 101.714844c0 15.3125 12.457031 27.769531 27.769531 27.769531 15.316406 0 27.773438-12.457031 27.773438-27.769531s-12.457032-27.769532-27.773438-27.769532c-15.3125 0-27.769531 12.457032-27.769531 27.769532zm36.472656 9.039062c-.722656-2.933594-1.097656-5.953125-1.097656-9.042968 0-3.089844.375-6.109376 1.09375-9.039063 2.378906 2.285156 3.863281 5.492187 3.863281 9.042969 0 3.546875-1.484375 6.75-3.859375 9.039062zm-15.207031-19.765625c-.71875 3.496094-1.097656 7.074219-1.097656 10.722657 0 3.648437.382812 7.230468 1.101562 10.730468-3.625-2.203125-6.058594-6.179687-6.058594-10.726562s2.433594-8.519532 6.054688-10.726563zm0 0"/></svg>