<svg xmlns="http://www.w3.org/2000/svg" xmlns:xlink="http://www.w3.org/1999/xlink"><symbol id="basketball" viewBox="0 0 512 512">
<path d="M256,0C115.04,0,0,115.05,0,256c0,140.96,115.05,256,256,256c140.96,0,256-115.05,256-256C512,115.04,396.95,0,256,0z   M429.64,111.51c31.96,38.34,51.47,87.39,52.31,140.89c-40.06-9.37-84.55-10-129.86-1.74c-11.79,2.15-23.58,4.88-35.3,8.16  c-3.9-10.61-8.04-21.13-12.44-31.55c-4.49-10.63-9.23-21.08-14.19-31.38C344.15,175.27,402.65,144.57,429.64,111.51z M256,30  c58.82,0,112.45,22.59,152.7,59.54C393,110.95,348.26,142.12,276.48,169c-25.06-46.66-55.11-89.54-89.83-128.1  C208.51,33.83,231.82,30,256,30z M156.95,52.9c35.41,37.93,65.87,80.29,90.96,126.05c-74.68,24.17-150.29,34.03-212.46,27.66  C50.59,138.96,96.14,82.67,156.95,52.9z M30,256c0-6.64,0.31-13.21,0.87-19.7c13.72,1.45,28.03,2.18,42.82,2.18  c58.33,0,123.86-11.22,188.21-32.53c9.82,20.1,18.65,40.78,26.44,61.97c-25.09,9.02-49.51,20.49-72.44,34.14  c-56.22,33.47-97.35,76.53-114.41,118.71C57.52,379.51,30,320.91,30,256z M256,482c-48.29,0-93.09-15.23-129.86-41.14  c11.4-38.52,49.96-80.19,105.11-113.02c19.43-11.58,42.15-22.49,66.88-31.36c17.53,55.1,28.27,113.26,31.68,173.13  C306.67,477.63,281.84,482,256,482z M359.07,457.1c-4.16-58.32-15.02-115.1-32.45-169.64c48.6-13.36,102.58-17.84,153.77-4.56  C471.33,358.91,424.41,423.47,359.07,457.1z"/>















</symbol><symbol id="behance" viewBox="0 0 24 24"><path d="m12.363 14.947c0-1.848-.879-3.214-2.695-3.726 1.325-.631 2.016-1.587 2.016-3.074 0-2.932-2.192-3.647-4.721-3.647h-6.963v14.721h7.158c2.684 0 5.205-1.283 5.205-4.274zm-9.117-7.934h3.046c1.171 0 2.225.328 2.225 1.682 0 1.25-.82 1.753-1.98 1.753h-3.291zm-.001 9.708v-4.054h3.538c1.429 0 2.333.594 2.333 2.102 0 1.487-1.079 1.952-2.4 1.952z"/><path d="m18.796 19.5c2.554 0 4.208-1.147 5.004-3.585h-2.592c-.279.91-1.429 1.391-2.321 1.391-1.721 0-2.625-1.005-2.625-2.713h7.713c.244-3.418-1.66-6.331-5.18-6.331-3.259 0-5.471 2.442-5.471 5.641 0 3.32 2.096 5.597 5.472 5.597zm-.092-9.026c1.475 0 2.217.864 2.341 2.277h-4.779c.097-1.401 1.03-2.277 2.438-2.277z"/><path d="m15.667 5.273h5.988v1.45h-5.988z"/></symbol><symbol id="facebook" viewBox="0 0 24 24"><path d="m15.997 3.985h2.191v-3.816c-.378-.052-1.678-.169-3.192-.169-3.159 0-5.323 1.987-5.323 5.639v3.361h-3.486v4.266h3.486v10.734h4.274v-10.733h3.345l.531-4.266h-3.877v-2.939c.001-1.233.333-2.077 2.051-2.077z"/></symbol><symbol id="instagram" viewBox="0 0 512.00096 512.00096"><path d="m373.40625 0h-234.8125c-76.421875 0-138.59375 62.171875-138.59375 138.59375v234.816406c0 76.417969 62.171875 138.589844 138.59375 138.589844h234.816406c76.417969 0 138.589844-62.171875 138.589844-138.589844v-234.816406c0-76.421875-62.171875-138.59375-138.59375-138.59375zm108.578125 373.410156c0 59.867188-48.707031 108.574219-108.578125 108.574219h-234.8125c-59.871094 0-108.578125-48.707031-108.578125-108.574219v-234.816406c0-59.871094 48.707031-108.578125 108.578125-108.578125h234.816406c59.867188 0 108.574219 48.707031 108.574219 108.578125zm0 0"/><path d="m256 116.003906c-77.195312 0-139.996094 62.800782-139.996094 139.996094s62.800782 139.996094 139.996094 139.996094 139.996094-62.800782 139.996094-139.996094-62.800782-139.996094-139.996094-139.996094zm0 249.976563c-60.640625 0-109.980469-49.335938-109.980469-109.980469 0-60.640625 49.339844-109.980469 109.980469-109.980469 60.644531 0 109.980469 49.339844 109.980469 109.980469 0 60.644531-49.335938 109.980469-109.980469 109.980469zm0 0"/><path d="m399.34375 66.285156c-22.8125 0-41.367188 18.558594-41.367188 41.367188 0 22.8125 18.554688 41.371094 41.367188 41.371094s41.371094-18.558594 41.371094-41.371094-18.558594-41.367188-41.371094-41.367188zm0 52.71875c-6.257812 0-11.351562-5.09375-11.351562-11.351562 0-6.261719 5.09375-11.351563 11.351562-11.351563 6.261719 0 11.355469 5.089844 11.355469 11.351563 0 6.257812-5.09375 11.351562-11.355469 11.351562zm0 0"/></symbol><symbol id="instagram2" viewBox="0 0 512 512">
<g>
	<g>
		<path d="M352,0H160C71.648,0,0,71.648,0,160v192c0,88.352,71.648,160,160,160h192c88.352,0,160-71.648,160-160V160
			C512,71.648,440.352,0,352,0z M464,352c0,61.76-50.24,112-112,112H160c-61.76,0-112-50.24-112-112V160C48,98.24,98.24,48,160,48
			h192c61.76,0,112,50.24,112,112V352z"/>
	</g>
</g>
<g>
	<g>
		<path d="M256,128c-70.688,0-128,57.312-128,128s57.312,128,128,128s128-57.312,128-128S326.688,128,256,128z M256,336
			c-44.096,0-80-35.904-80-80c0-44.128,35.904-80,80-80s80,35.872,80,80C336,300.096,300.096,336,256,336z"/>
	</g>
</g>
<g>
	<g>
		<circle cx="393.6" cy="118.4" r="17.056"/>
	</g>
</g>
<g>
</g>
<g>
</g>
<g>
</g>
<g>
</g>
<g>
</g>
<g>
</g>
<g>
</g>
<g>
</g>
<g>
</g>
<g>
</g>
<g>
</g>
<g>
</g>
<g>
</g>
<g>
</g>
<g>
</g>
</symbol><symbol id="vk" viewBox="0 0 511.962 511.962">
<g>
	<g>
		<path d="M507.399,370.471c-1.376-2.304-9.888-20.8-50.848-58.816c-42.88-39.808-37.12-33.344,14.528-102.176
			c31.456-41.92,44.032-67.52,40.096-78.464c-3.744-10.432-26.88-7.68-26.88-7.68l-76.928,0.448c0,0-5.696-0.768-9.952,1.76
			c-4.128,2.496-6.784,8.256-6.784,8.256s-12.192,32.448-28.448,60.032c-34.272,58.208-48,61.28-53.6,57.664
			c-13.024-8.416-9.76-33.856-9.76-51.904c0-56.416,8.544-79.936-16.672-86.016c-8.384-2.016-14.528-3.36-35.936-3.584
			c-27.456-0.288-50.72,0.096-63.872,6.528c-8.768,4.288-15.52,13.856-11.392,14.4c5.088,0.672,16.608,3.104,22.72,11.424
			c7.904,10.72,7.616,34.848,7.616,34.848s4.544,66.4-10.592,74.656c-10.4,5.664-24.64-5.888-55.2-58.72
			c-15.648-27.04-27.488-56.96-27.488-56.96s-2.272-5.568-6.336-8.544c-4.928-3.616-11.84-4.768-11.84-4.768l-73.152,0.448
			c0,0-10.976,0.32-15.008,5.088c-3.584,4.256-0.288,13.024-0.288,13.024s57.28,133.984,122.112,201.536
			c59.488,61.92,127.008,57.856,127.008,57.856h30.592c0,0,9.248-1.024,13.952-6.112c4.352-4.672,4.192-13.44,4.192-13.44
			s-0.608-41.056,18.464-47.104c18.784-5.952,42.912,39.68,68.48,57.248c19.328,13.28,34.016,10.368,34.016,10.368l68.384-0.96
			C488.583,400.807,524.359,398.599,507.399,370.471z"/>
	</g>
</g>
<g>
</g>
<g>
</g>
<g>
</g>
<g>
</g>
<g>
</g>
<g>
</g>
<g>
</g>
<g>
</g>
<g>
</g>
<g>
</g>
<g>
</g>
<g>
</g>
<g>
</g>
<g>
</g>
<g>
</g>
</symbol><symbol id="youtube" viewBox="0 0 512 512">
<g>
	<g>
		<path d="M490.24,113.92c-13.888-24.704-28.96-29.248-59.648-30.976C399.936,80.864,322.848,80,256.064,80
			c-66.912,0-144.032,0.864-174.656,2.912c-30.624,1.76-45.728,6.272-59.744,31.008C7.36,138.592,0,181.088,0,255.904
			C0,255.968,0,256,0,256c0,0.064,0,0.096,0,0.096v0.064c0,74.496,7.36,117.312,21.664,141.728
			c14.016,24.704,29.088,29.184,59.712,31.264C112.032,430.944,189.152,432,256.064,432c66.784,0,143.872-1.056,174.56-2.816
			c30.688-2.08,45.76-6.56,59.648-31.264C504.704,373.504,512,330.688,512,256.192c0,0,0-0.096,0-0.16c0,0,0-0.064,0-0.096
			C512,181.088,504.704,138.592,490.24,113.92z M192,352V160l160,96L192,352z"/>
	</g>
</g>
<g>
</g>
<g>
</g>
<g>
</g>
<g>
</g>
<g>
</g>
<g>
</g>
<g>
</g>
<g>
</g>
<g>
</g>
<g>
</g>
<g>
</g>
<g>
</g>
<g>
</g>
<g>
</g>
<g>
</g>
</symbol></svg>